<svg xmlns="http://www.w3.org/2000/svg" width="1024" height="1024" viewBox="0 0 1024 1024">
  <circle cx="120" cy="160" r="1.6" fill="#F5FBFF" fill-opacity="0.65"/>
  <circle cx="210" cy="95" r="1.2" fill="#F5FBFF" fill-opacity="0.45"/>
  <circle cx="302" cy="142" r="1.8" fill="#F5FBFF" fill-opacity="0.5"/>
  <circle cx="418" cy="88" r="1.4" fill="#F5FBFF" fill-opacity="0.42"/>
  <circle cx="604" cy="112" r="1.5" fill="#F5FBFF" fill-opacity="0.36"/>
  <circle cx="760" cy="90" r="1.2" fill="#F5FBFF" fill-opacity="0.4"/>
  <circle cx="862" cy="148" r="1.7" fill="#F5FBFF" fill-opacity="0.58"/>
  <circle cx="924" cy="218" r="1.3" fill="#F5FBFF" fill-opacity="0.48"/>
  <circle cx="148" cy="302" r="1.3" fill="#F5FBFF" fill-opacity="0.36"/>
  <circle cx="232" cy="248" r="1.8" fill="#F5FBFF" fill-opacity="0.55"/>
  <circle cx="330" cy="296" r="1.1" fill="#F5FBFF" fill-opacity="0.34"/>
  <circle cx="710" cy="242" r="1.7" fill="#F5FBFF" fill-opacity="0.52"/>
  <circle cx="842" cy="316" r="1.2" fill="#F5FBFF" fill-opacity="0.38"/>
  <circle cx="902" cy="392" r="1.6" fill="#F5FBFF" fill-opacity="0.42"/>
  <circle cx="118" cy="472" r="1.1" fill="#F5FBFF" fill-opacity="0.32"/>
  <circle cx="206" cy="602" r="1.6" fill="#F5FBFF" fill-opacity="0.47"/>
  <circle cx="286" cy="706" r="1.2" fill="#F5FBFF" fill-opacity="0.4"/>
  <circle cx="404" cy="812" r="1.5" fill="#F5FBFF" fill-opacity="0.36"/>
  <circle cx="584" cy="834" r="1.3" fill="#F5FBFF" fill-opacity="0.44"/>
  <circle cx="744" cy="770" r="1.4" fill="#F5FBFF" fill-opacity="0.38"/>
  <circle cx="884" cy="640" r="1.7" fill="#F5FBFF" fill-opacity="0.53"/>
  <circle cx="928" cy="860" r="1.5" fill="#F5FBFF" fill-opacity="0.5"/>
  <circle cx="128" cy="828" r="1.4" fill="#F5FBFF" fill-opacity="0.46"/>
  <circle cx="82" cy="640" r="1.2" fill="#F5FBFF" fill-opacity="0.3"/>
  <circle cx="514" cy="172" r="1.0" fill="#F5FBFF" fill-opacity="0.28"/>
  <circle cx="818" cy="512" r="1.1" fill="#F5FBFF" fill-opacity="0.3"/>
  <circle cx="660" cy="690" r="1.0" fill="#F5FBFF" fill-opacity="0.28"/>
  <circle cx="356" cy="534" r="1.0" fill="#F5FBFF" fill-opacity="0.26"/>
  <g opacity="0.22" stroke="#F5FBFF" stroke-width="1.6" stroke-linecap="round"><line x1="181" y1="540" x2="195" y2="540"/><line x1="188" y1="533" x2="188" y2="547"/></g>
  <g opacity="0.2" stroke="#F5FBFF" stroke-width="1.6" stroke-linecap="round"><line x1="786" y1="196" x2="798" y2="196"/><line x1="792" y1="190" x2="792" y2="202"/></g>
  <g opacity="0.18" stroke="#F5FBFF" stroke-width="1.6" stroke-linecap="round"><line x1="833" y1="732" x2="847" y2="732"/><line x1="840" y1="725" x2="840" y2="739"/></g>
  <g opacity="0.16" stroke="#F5FBFF" stroke-width="1.6" stroke-linecap="round"><line x1="327" y1="184" x2="337" y2="184"/><line x1="332" y1="179" x2="332" y2="189"/></g>
</svg>
